<svg width="19" height="16" viewBox="0 0 19 16" fill="none" xmlns="http://www.w3.org/2000/svg">
<path d="M14.0236 2.72305L18.5807 7.04023C18.8479 7.29336 19 7.64141 19 8C19 8.35859 18.8479 8.70664 18.5807 8.95977L14.0236 13.277C13.7861 13.502 13.467 13.625 13.133 13.625C12.4391 13.625 11.875 13.0906 11.875 12.4332V10.25H7.125C6.46816 10.25 5.9375 9.74727 5.9375 9.125V6.875C5.9375 6.25273 6.46816 5.75 7.125 5.75H11.875V3.5668C11.875 2.90937 12.4391 2.375 13.133 2.375C13.467 2.375 13.7861 2.50156 14.0236 2.72305ZM5.9375 2.375H3.5625C2.90566 2.375 2.375 2.87773 2.375 3.5V12.5C2.375 13.1223 2.90566 13.625 3.5625 13.625H5.9375C6.59434 13.625 7.125 14.1277 7.125 14.75C7.125 15.3723 6.59434 15.875 5.9375 15.875H3.5625C1.5957 15.875 0 14.3633 0 12.5V3.5C0 1.63672 1.5957 0.125 3.5625 0.125H5.9375C6.59434 0.125 7.125 0.627734 7.125 1.25C7.125 1.87227 6.59434 2.375 5.9375 2.375Z" fill="white"/>
</svg>
